Inseparable 2011 DVDRiP AC3-5 1 XviD-AXED

IMDB:  
http://www.imdb.com/title/tt1032763/

PLOT INFO:
A troubled young man, Li faces pressure at work and problems at home with his moody wife. Chuck, rescues Li from the brink of despair and becomes an unlikely mentor. But who is Chuck really? 


MEDIAINFO:
General
Complete name                            : Inseparable.2011.DVDRiP.AC3-5.1.XviD-AXED.avi
Format                                   : AVI
Format/Info                              : Audio Video Interleave
File size                                : 1.37 GiB
Duration                                 : 1h 36mn
Overall bit rate                         : 2 024 Kbps

Video
ID                                       : 0
Format                                   : MPEG-4 Visual
Format profile                           : Advanced Simple@L5
Format settings, BVOP                    : 2
Format settings, QPel                    : No
Format settings, GMC                     : No warppoints
Format settings, Matrix                  : Default (H.263)
Muxing mode                              : Packed bitstream
Codec ID                                 : XVID
Codec ID/Hint                            : XviD
Duration                                 : 1h 36mn
Bit rate                                 : 1 568 Kbps
Width                                    : 720 pixels
Height                                   : 304 pixels
Display aspect ratio                     : 2.35:1
Frame rate                               : 23.976 fps
Color space                              : YUV
Chroma subsampling                       : 4:2:0
Bit depth                                : 8 bits
Scan type                                : Progressive
Compression mode                         : Lossy
Bits/(Pixel*Frame)                       : 0.299
Stream size                              : 1.06 GiB (77%)
Writing library                          : XviD 1.1.2 (UTC 2006-11-01)

Audio
ID                                       : 1
Format                                   : AC-3
Format/Info                              : Audio Coding 3
Mode extension                           : CM (complete main)
Format settings, Endianness              : Big
Codec ID                                 : 2000
Duration                                 : 1h 36mn
Source duration                          : 1h 36mn
Bit rate mode                            : Constant
Bit rate                                 : 448 Kbps
Channel(s)                               : 6 channels
Channel positions                        : Front: L C R, Side: L R, LFE
Sampling rate                            : 48.0 KHz
Bit depth                                : 16 bits
Compression mode                         : Lossy
Stream size                              : 310 MiB (22%)
Alignment                                : Aligned on interleaves
Interleave, duration                     : 64 ms (1.53 video frames)
Interleave, preload duration             : 192 ms
Title                                    : VTS_01_1 T80 3_2ch 448Kbps DELAY 0ms

SOURCE: 
Retail R1 NTSC DVD

NOTES: 
Heres the new movie with Kevin Spacey encoded from the Retail R1 NTSC DVD! Hard Coded English subs are included for the non english speaking scenes!

AXED! We do this better!


Poster:

 
http://i.imgur.com/ySdvi.jpg


Screenshots:

 
http://i.imgur.com/j4KNi.png

 
http://i.imgur.com/WSBik.png

 
http://i.imgur.com/YCchW.png


ENJOY!